<svg xmlns="http://www.w3.org/2000/svg" width="230.64000000000001" height="35" viewBox="0 0 230.64000000000001 35"><rect class="svg__rect" x="0" y="0" width="115.31" height="35" fill="#31C4F3"/><rect class="svg__rect" x="113.31" y="0" width="117.33000000000001" height="35" fill="#389AD5"/><path class="svg__text" d="M15.69 22L14.22 22L14.22 13.47L16.14 13.47L18.60 20.01L21.06 13.47L22.97 13.47L22.97 22L21.49 22L21.49 19.19L21.64 15.43L19.12 22L18.06 22L15.55 15.43L15.69 19.19L15.69 22ZM28.49 22L26.95 22L30.17 13.47L31.50 13.47L34.73 22L33.18 22L32.49 20.01L29.18 20.01L28.49 22ZM30.83 15.28L29.60 18.82L32.07 18.82L30.83 15.28ZM41.14 22L38.69 22L38.69 13.47L41.21 13.47Q42.34 13.47 43.21 13.97Q44.09 14.48 44.57 15.40Q45.05 16.33 45.05 17.52L45.05 17.52L45.05 17.95Q45.05 19.16 44.57 20.08Q44.08 21.00 43.19 21.50Q42.30 22 41.14 22L41.14 22ZM40.17 14.66L40.17 20.82L41.14 20.82Q42.30 20.82 42.93 20.09Q43.55 19.36 43.56 17.99L43.56 17.99L43.56 17.52Q43.56 16.13 42.96 15.40Q42.35 14.66 41.21 14.66L41.21 14.66L40.17 14.66ZM55.09 22L49.51 22L49.51 13.47L55.05 13.47L55.05 14.66L51.00 14.66L51.00 17.02L54.50 17.02L54.50 18.19L51.00 18.19L51.00 20.82L55.09 20.82L55.09 22ZM66.65 22L64.68 13.47L66.15 13.47L67.47 19.88L69.10 13.47L70.34 13.47L71.96 19.89L73.27 13.47L74.74 13.47L72.77 22L71.35 22L69.73 15.77L68.07 22L66.65 22ZM80.38 22L78.90 22L78.90 13.47L80.38 13.47L80.38 22ZM86.87 14.66L84.23 14.66L84.23 13.47L91.00 13.47L91.00 14.66L88.34 14.66L88.34 22L86.87 22L86.87 14.66ZM96.24 22L94.75 22L94.75 13.47L96.24 13.47L96.24 17.02L100.05 17.02L100.05 13.47L101.53 13.47L101.53 22L100.05 22L100.05 18.21L96.24 18.21L96.24 22Z" fill="#FFFFFF"/><path class="svg__text" d="M134.24 22L127.50 22L127.50 13.60L134.09 13.60L134.09 15.44L129.85 15.44L129.85 16.85L133.59 16.85L133.59 18.63L129.85 18.63L129.85 20.17L134.24 20.17L134.24 22ZM145.43 22L139.05 22L139.05 13.60L141.43 13.60L141.43 20.11L145.43 20.11L145.43 22ZM156.60 22L149.85 22L149.85 13.60L156.44 13.60L156.44 15.44L152.21 15.44L152.21 16.85L155.94 16.85L155.94 18.63L152.21 18.63L152.21 20.17L156.60 20.17L156.60 22ZM160.97 17.80L160.97 17.80Q160.97 16.54 161.57 15.54Q162.17 14.55 163.22 13.99Q164.27 13.43 165.59 13.43L165.59 13.43Q166.74 13.43 167.67 13.84Q168.59 14.25 169.20 15.02L169.20 15.02L167.69 16.39Q166.88 15.40 165.71 15.40L165.71 15.40Q165.03 15.40 164.49 15.70Q163.96 16 163.66 16.54Q163.37 17.09 163.37 17.80L163.37 17.80Q163.37 18.51 163.66 19.05Q163.96 19.60 164.49 19.90Q165.03 20.20 165.71 20.20L165.71 20.20Q166.88 20.20 167.69 19.22L167.69 19.22L169.20 20.58Q168.60 21.35 167.67 21.76Q166.74 22.17 165.59 22.17L165.59 22.17Q164.27 22.17 163.22 21.61Q162.17 21.05 161.57 20.05Q160.97 19.06 160.97 17.80ZM175.53 15.48L172.95 15.48L172.95 13.60L180.47 13.60L180.47 15.48L177.91 15.48L177.91 22L175.53 22L175.53 15.48ZM187.22 22L184.84 22L184.84 13.60L188.69 13.60Q189.83 13.60 190.67 13.98Q191.51 14.35 191.96 15.06Q192.42 15.76 192.42 16.71L192.42 16.71Q192.42 17.62 191.99 18.30Q191.56 18.98 190.77 19.36L190.77 19.36L192.58 22L190.04 22L188.52 19.77L187.22 19.77L187.22 22ZM187.22 15.47L187.22 17.93L188.54 17.93Q189.27 17.93 189.65 17.61Q190.02 17.29 190.02 16.71L190.02 16.71Q190.02 16.12 189.65 15.79Q189.27 15.47 188.54 15.47L188.54 15.47L187.22 15.47ZM196.78 17.80L196.78 17.80Q196.78 16.55 197.38 15.55Q197.99 14.56 199.05 14.00Q200.11 13.43 201.44 13.43L201.44 13.43Q202.77 13.43 203.84 14.00Q204.90 14.56 205.51 15.55Q206.11 16.55 206.11 17.80L206.11 17.80Q206.11 19.05 205.51 20.04Q204.90 21.04 203.84 21.60Q202.78 22.17 201.44 22.17L201.44 22.17Q200.11 22.17 199.05 21.60Q197.99 21.04 197.38 20.04Q196.78 19.05 196.78 17.80ZM199.18 17.80L199.18 17.80Q199.18 18.51 199.48 19.05Q199.78 19.60 200.29 19.90Q200.81 20.20 201.44 20.20L201.44 20.20Q202.08 20.20 202.60 19.90Q203.11 19.60 203.41 19.05Q203.71 18.51 203.71 17.80L203.71 17.80Q203.71 17.09 203.41 16.54Q203.11 16 202.60 15.70Q202.08 15.40 201.44 15.40L201.44 15.40Q200.80 15.40 200.29 15.70Q199.78 16 199.48 16.54Q199.18 17.09 199.18 17.80ZM213.17 22L210.84 22L210.84 13.60L212.80 13.60L216.51 18.07L216.51 13.60L218.83 13.60L218.83 22L216.88 22L213.17 17.52L213.17 22Z" fill="#FFFFFF" x="126.31"/></svg>